<?xml version="1.0" encoding="utf-8"?>
<!-- Generator: Adobe Illustrator 25.2.1, SVG Export Plug-In . SVG Version: 6.00 Build 0)  -->
<svg version="1.1" id="Layer_1" xmlns="http://www.w3.org/2000/svg" xmlns:xlink="http://www.w3.org/1999/xlink" x="0px" y="0px"
	 viewBox="0 0 900 300" style="enable-background:new 0 0 900 300;" xml:space="preserve">
<style type="text/css">
	.st0{fill:#FFFFFF;}
	.st1{fill:#9E8555;}
	.st2{fill:#2E3543;}
	.st3{fill:#313446;}
	.st4{fill:#010101;}
	.st5{fill:#EDCB6D;stroke:#EDCB6D;stroke-width:0.5;stroke-miterlimit:10;}
	.st6{fill:#535353;}
</style>
<polygon class="st0" points="899,300 -1,300 0,0.83 900,0.83 "/>
<polygon class="st1" points="0,117.6 166.72,300.04 776.06,300.04 659.05,172.58 504.15,-0.17 0,-0.17 "/>
<polyline class="st2" points="900,173 900,300 775.85,300 659.05,172.58 "/>
<polygon class="st3" points="0,140.4 68.74,217.34 91.21,217.34 0,117.6 "/>
<g>
	<path class="st4" d="M604.4,62.72V34.98h5.53l6.57,19.64c0.61,1.83,1.05,3.2,1.32,4.11c0.32-1.01,0.81-2.49,1.48-4.45l6.64-19.3
		h4.94v27.74h-3.54V39.5l-8.06,23.22h-3.31l-8.02-23.62v23.62H604.4z"/>
	<path class="st4" d="M633.75,62.72l10.65-27.74h3.95l11.35,27.74h-4.18l-3.24-8.4h-11.6l-3.05,8.4H633.75z M641.76,51.33h9.4
		l-2.9-7.68c-0.88-2.33-1.54-4.25-1.97-5.75c-0.35,1.78-0.85,3.55-1.49,5.3L641.76,51.33z"/>
	<path class="st4" d="M666.83,62.72V38.25h-9.14v-3.27h21.99v3.27h-9.18v24.47H666.83z"/>
	<path class="st4" d="M683.52,62.72V34.98h20.06v3.27h-16.39v8.5h15.35v3.25h-15.35v9.44h17.03v3.27H683.52z"/>
	<path class="st4" d="M709.35,62.72V34.98h12.3c2.47,0,4.35,0.25,5.64,0.75c1.29,0.5,2.31,1.38,3.08,2.64
		c0.77,1.26,1.15,2.66,1.15,4.18c0,1.97-0.64,3.63-1.91,4.98c-1.27,1.35-3.24,2.21-5.9,2.57c0.97,0.47,1.71,0.93,2.21,1.38
		c1.07,0.98,2.09,2.21,3.05,3.69l4.83,7.55h-4.62l-3.67-5.77c-1.07-1.67-1.96-2.94-2.65-3.82c-0.69-0.88-1.32-1.5-1.86-1.85
		c-0.55-0.35-1.11-0.6-1.67-0.74c-0.42-0.09-1.1-0.13-2.04-0.13h-4.26v12.32H709.35z M713.02,47.22h7.89c1.68,0,2.99-0.17,3.94-0.52
		c0.95-0.35,1.67-0.9,2.16-1.67c0.49-0.76,0.74-1.59,0.74-2.49c0-1.31-0.48-2.39-1.43-3.24c-0.95-0.85-2.46-1.27-4.51-1.27h-8.78
		V47.22z"/>
	<path class="st4" d="M737.9,62.72V34.98h3.67v27.74H737.9z"/>
	<g>
		<path class="st5" d="M791.09,60.51c-0.33-2.06-2.12-3.29-4.16-3.29c-3.2,0-5.07,2.62-5.07,5.76c0,3.13,1.87,5.76,5.07,5.76
			c2.38,0,4.23-2.12,4.37-4.4h0.75c-0.27,2.91-2.43,5.05-5.12,5.05c-3.67,0-5.82-2.83-5.82-6.41c0-3.58,2.16-6.41,5.82-6.41
			c4.33,0,4.9,3.77,4.92,3.94H791.09z"/>
		<path class="st5" d="M798.91,69.38c-3.67,0-5.82-2.83-5.82-6.41c0-3.58,2.16-6.41,5.82-6.41c3.65,0,5.81,2.83,5.81,6.41
			C804.71,66.55,802.55,69.38,798.91,69.38z M798.91,68.73c3.19,0,5.05-2.62,5.05-5.76c0-3.13-1.87-5.76-5.05-5.76
			c-3.2,0-5.07,2.62-5.07,5.76C793.84,66.11,795.7,68.73,798.91,68.73z"/>
		<path class="st5" d="M806.32,56.86h0.75v11.58h6.94v0.65h-7.69V56.86z"/>
		<path class="st5" d="M814.89,56.86h0.75v11.58h6.94v0.65h-7.69V56.86z"/>
		<path class="st5" d="M831.76,68.44v0.65h-8.31V56.86h8.22v0.65h-7.47v4.9h7.02v0.65h-7.02v5.38H831.76z"/>
		<path class="st5" d="M842.57,60.51c-0.33-2.06-2.12-3.29-4.16-3.29c-3.2,0-5.07,2.62-5.07,5.76c0,3.13,1.87,5.76,5.07,5.76
			c2.38,0,4.23-2.12,4.37-4.4h0.75c-0.27,2.91-2.43,5.05-5.12,5.05c-3.67,0-5.82-2.83-5.82-6.41c0-3.58,2.16-6.41,5.82-6.41
			c4.33,0,4.9,3.77,4.92,3.94H842.57z"/>
		<path class="st5" d="M843.79,57.51v-0.65h9.37v0.65h-4.32v11.58h-0.75V57.51H843.79z"/>
		<path class="st5" d="M854,56.86h0.75v12.23H854V56.86z"/>
		<path class="st5" d="M862.18,69.38c-3.67,0-5.82-2.83-5.82-6.41c0-3.58,2.16-6.41,5.82-6.41c3.65,0,5.81,2.83,5.81,6.41
			C867.99,66.55,865.83,69.38,862.18,69.38z M862.18,68.73c3.19,0,5.05-2.62,5.05-5.76c0-3.13-1.87-5.76-5.05-5.76
			c-3.2,0-5.07,2.62-5.07,5.76C857.11,66.11,858.98,68.73,862.18,68.73z"/>
		<path class="st5" d="M869.6,56.86h0.94l7.73,11.22h0.03V56.86h0.75v12.23h-0.89l-7.78-11.31h-0.03v11.31h-0.75V56.86z"/>
	</g>
	<path class="st4" d="M879.47,51.46H766.35l-6.74-16.48h-3.95L745,62.72h3.9l3.05-8.4h11.6l3.24,8.4h4.18l-3.49-8.53h112V51.46z
		 M756.05,43.19c0.64-1.75,1.14-3.52,1.49-5.3c0.43,1.5,1.09,3.42,1.97,5.75l2.9,7.68H753L756.05,43.19z"/>
</g>
<g>
	<path class="st6" d="M605.82,77.09h0.89v7.63h4.7v0.77h-5.59V77.09z"/>
	<path class="st6" d="M614.02,84.63c-0.61-0.62-0.91-1.53-0.91-2.72v-4.81H614v4.78c0,0.98,0.22,1.7,0.66,2.18
		c0.44,0.48,1.08,0.72,1.91,0.72c0.84,0,1.48-0.24,1.92-0.72c0.44-0.48,0.66-1.21,0.66-2.18v-4.78h0.86v4.81
		c0,1.19-0.3,2.1-0.91,2.72c-0.6,0.62-1.45,0.94-2.54,0.94S614.63,85.25,614.02,84.63z"/>
	<path class="st6" d="M628.25,85.49l-2.71-3.7l-2.7,3.7h-1.02l3.19-4.32l-2.99-4.08h1.02l2.53,3.43l2.52-3.43h0.96l-2.98,4.06
		l3.2,4.34H628.25z"/>
	<path class="st6" d="M632,84.63c-0.61-0.62-0.91-1.53-0.91-2.72v-4.81h0.89v4.78c0,0.98,0.22,1.7,0.66,2.18
		c0.44,0.48,1.08,0.72,1.91,0.72c0.84,0,1.48-0.24,1.92-0.72c0.44-0.48,0.66-1.21,0.66-2.18v-4.78h0.86v4.81
		c0,1.19-0.3,2.1-0.91,2.72c-0.6,0.62-1.45,0.94-2.54,0.94S632.61,85.25,632,84.63z"/>
	<path class="st6" d="M646.7,85.49l-1.92-2.7c-0.22,0.02-0.44,0.04-0.67,0.04h-2.26v2.66h-0.89v-8.4h3.14
		c1.07,0,1.91,0.26,2.52,0.77c0.61,0.51,0.91,1.22,0.91,2.11c0,0.66-0.17,1.21-0.5,1.66s-0.81,0.78-1.42,0.98l2.05,2.88H646.7z
		 M645.99,81.52c0.44-0.37,0.66-0.88,0.66-1.55c0-0.68-0.22-1.2-0.66-1.57c-0.44-0.36-1.08-0.55-1.91-0.55h-2.23v4.21h2.23
		C644.92,82.07,645.55,81.89,645.99,81.52z"/>
	<path class="st6" d="M652.82,82.59v2.9h-0.88v-2.9l-3.36-5.5h0.95l2.88,4.72l2.88-4.72h0.89L652.82,82.59z"/>
	<path class="st6" d="M661.3,77.09h3.42c0.89,0,1.67,0.18,2.35,0.53c0.68,0.36,1.21,0.85,1.58,1.49c0.38,0.64,0.56,1.36,0.56,2.18
		c0,0.82-0.19,1.54-0.56,2.18c-0.38,0.64-0.9,1.13-1.58,1.49c-0.68,0.36-1.46,0.53-2.35,0.53h-3.42V77.09z M664.67,84.72
		c0.74,0,1.38-0.15,1.93-0.44s0.98-0.7,1.28-1.21s0.46-1.11,0.46-1.78c0-0.67-0.15-1.27-0.46-1.78s-0.73-0.92-1.28-1.21
		s-1.2-0.44-1.93-0.44h-2.48v6.86H664.67z"/>
	<path class="st6" d="M677.45,84.72v0.77h-5.94v-8.4h5.76v0.77h-4.87v2.99h4.34v0.76h-4.34v3.12H677.45z"/>
	<path class="st6" d="M681.24,85.01c-0.67-0.37-1.19-0.88-1.57-1.53c-0.38-0.65-0.57-1.38-0.57-2.19c0-0.81,0.19-1.54,0.57-2.19
		c0.38-0.65,0.91-1.16,1.58-1.53c0.67-0.37,1.42-0.55,2.26-0.55c0.62,0,1.2,0.1,1.73,0.31c0.53,0.21,0.98,0.51,1.34,0.91l-0.56,0.56
		c-0.66-0.66-1.48-1-2.48-1c-0.66,0-1.27,0.15-1.81,0.46c-0.54,0.3-0.97,0.72-1.28,1.25s-0.46,1.12-0.46,1.78
		c0,0.66,0.15,1.25,0.46,1.78c0.31,0.53,0.73,0.94,1.28,1.25c0.54,0.3,1.15,0.46,1.81,0.46c1.01,0,1.84-0.34,2.48-1.01l0.56,0.56
		c-0.37,0.4-0.82,0.71-1.35,0.92s-1.11,0.32-1.73,0.32C682.66,85.56,681.91,85.38,681.24,85.01z"/>
	<path class="st6" d="M690.18,85c-0.68-0.37-1.2-0.88-1.58-1.53c-0.38-0.65-0.57-1.38-0.57-2.18c0-0.81,0.19-1.54,0.57-2.18
		c0.38-0.65,0.91-1.16,1.58-1.53c0.68-0.37,1.43-0.56,2.26-0.56s1.58,0.18,2.25,0.55s1.19,0.88,1.58,1.53
		c0.38,0.65,0.58,1.38,0.58,2.19c0,0.81-0.19,1.54-0.58,2.19c-0.38,0.65-0.91,1.16-1.58,1.53c-0.67,0.37-1.42,0.55-2.25,0.55
		S690.86,85.38,690.18,85z M694.24,84.32c0.54-0.3,0.96-0.72,1.26-1.25c0.3-0.53,0.46-1.13,0.46-1.78c0-0.66-0.15-1.25-0.46-1.78
		c-0.3-0.53-0.72-0.95-1.26-1.25s-1.14-0.45-1.8-0.45s-1.27,0.15-1.81,0.45s-0.96,0.72-1.27,1.25s-0.46,1.13-0.46,1.78
		c0,0.66,0.15,1.25,0.46,1.78c0.31,0.53,0.73,0.95,1.27,1.25c0.54,0.3,1.14,0.45,1.81,0.45S693.71,84.62,694.24,84.32z"/>
	<path class="st6" d="M704.87,85.49l-1.92-2.7c-0.22,0.02-0.44,0.04-0.67,0.04h-2.26v2.66h-0.89v-8.4h3.14
		c1.07,0,1.91,0.26,2.52,0.77c0.61,0.51,0.91,1.22,0.91,2.11c0,0.66-0.17,1.21-0.5,1.66s-0.81,0.78-1.42,0.98l2.05,2.88H704.87z
		 M704.17,81.52c0.44-0.37,0.66-0.88,0.66-1.55c0-0.68-0.22-1.2-0.66-1.57c-0.44-0.36-1.08-0.55-1.91-0.55h-2.23v4.21h2.23
		C703.09,82.07,703.73,81.89,704.17,81.52z"/>
	<path class="st6" d="M716.83,83.25h-4.68l-1.01,2.24h-0.92l3.84-8.4h0.88l3.84,8.4h-0.94L716.83,83.25z M716.5,82.53l-2.02-4.51
		l-2.02,4.51H716.5z"/>
	<path class="st6" d="M727.48,77.09v8.4h-0.73l-5.4-6.82v6.82h-0.89v-8.4h0.73l5.41,6.82v-6.82H727.48z"/>
	<path class="st6" d="M730.52,77.09h3.42c0.89,0,1.67,0.18,2.35,0.53c0.68,0.36,1.21,0.85,1.58,1.49c0.38,0.64,0.56,1.36,0.56,2.18
		c0,0.82-0.19,1.54-0.56,2.18c-0.38,0.64-0.9,1.13-1.58,1.49c-0.68,0.36-1.46,0.53-2.35,0.53h-3.42V77.09z M733.89,84.72
		c0.74,0,1.38-0.15,1.93-0.44s0.98-0.7,1.28-1.21s0.46-1.11,0.46-1.78c0-0.67-0.15-1.27-0.46-1.78s-0.73-0.92-1.28-1.21
		s-1.2-0.44-1.93-0.44h-2.48v6.86H733.89z"/>
	<path class="st6" d="M750.74,81.87c0.3,0.36,0.45,0.81,0.45,1.37c0,0.72-0.27,1.27-0.8,1.66c-0.53,0.39-1.32,0.58-2.36,0.58h-3.86
		v-8.4h3.62c0.94,0,1.66,0.19,2.18,0.56s0.77,0.91,0.77,1.6c0,0.46-0.11,0.86-0.34,1.18c-0.23,0.32-0.54,0.57-0.94,0.73
		C750.02,81.28,750.44,81.52,750.74,81.87z M745.06,77.82v3.05h2.68c0.68,0,1.2-0.13,1.57-0.39c0.37-0.26,0.55-0.64,0.55-1.13
		s-0.18-0.87-0.55-1.13c-0.37-0.26-0.89-0.39-1.57-0.39H745.06z M749.73,84.37c0.38-0.26,0.58-0.66,0.58-1.2
		c0-1.05-0.76-1.57-2.28-1.57h-2.96v3.16h2.96C748.78,84.76,749.35,84.63,749.73,84.37z"/>
	<path class="st6" d="M759.46,84.72v0.77h-5.94v-8.4h5.76v0.77h-4.87v2.99h4.34v0.76h-4.34v3.12H759.46z"/>
	<path class="st6" d="M762.37,85.26c-0.57-0.2-1.01-0.46-1.33-0.79l0.35-0.68c0.3,0.3,0.71,0.55,1.21,0.74s1.02,0.28,1.56,0.28
		c0.75,0,1.32-0.14,1.69-0.41c0.38-0.28,0.56-0.63,0.56-1.07c0-0.34-0.1-0.6-0.31-0.8c-0.2-0.2-0.45-0.35-0.75-0.46
		s-0.71-0.23-1.24-0.35c-0.63-0.16-1.14-0.31-1.51-0.46s-0.7-0.37-0.97-0.68c-0.27-0.3-0.4-0.72-0.4-1.24
		c0-0.42,0.11-0.81,0.34-1.16c0.22-0.35,0.57-0.63,1.03-0.83c0.46-0.21,1.04-0.31,1.73-0.31c0.48,0,0.95,0.07,1.41,0.2
		c0.46,0.13,0.86,0.31,1.19,0.55l-0.3,0.71c-0.35-0.23-0.73-0.41-1.13-0.52c-0.4-0.12-0.79-0.17-1.18-0.17
		c-0.74,0-1.29,0.14-1.66,0.43c-0.37,0.28-0.56,0.65-0.56,1.1c0,0.34,0.1,0.61,0.31,0.81c0.2,0.2,0.46,0.36,0.77,0.47
		s0.72,0.23,1.24,0.35c0.62,0.15,1.11,0.3,1.49,0.45s0.7,0.37,0.97,0.67s0.4,0.71,0.4,1.22c0,0.42-0.11,0.81-0.34,1.16
		c-0.23,0.35-0.58,0.62-1.05,0.83s-1.05,0.31-1.74,0.31C763.54,85.56,762.94,85.46,762.37,85.26z"/>
	<path class="st6" d="M775.19,77.86c0.61,0.51,0.91,1.22,0.91,2.11s-0.3,1.6-0.91,2.11c-0.61,0.51-1.45,0.76-2.52,0.76h-2.26v2.65
		h-0.89v-8.4h3.14C773.75,77.09,774.58,77.35,775.19,77.86z M774.56,81.51c0.44-0.36,0.66-0.88,0.66-1.54c0-0.68-0.22-1.2-0.66-1.57
		c-0.44-0.36-1.08-0.55-1.91-0.55h-2.23v4.2h2.23C773.48,82.06,774.12,81.88,774.56,81.51z"/>
	<path class="st6" d="M779.86,85c-0.68-0.37-1.2-0.88-1.58-1.53c-0.38-0.65-0.57-1.38-0.57-2.18c0-0.81,0.19-1.54,0.57-2.18
		c0.38-0.65,0.91-1.16,1.58-1.53c0.68-0.37,1.43-0.56,2.26-0.56s1.58,0.18,2.25,0.55s1.19,0.88,1.58,1.53
		c0.38,0.65,0.58,1.38,0.58,2.19c0,0.81-0.19,1.54-0.58,2.19c-0.38,0.65-0.91,1.16-1.58,1.53c-0.67,0.37-1.42,0.55-2.25,0.55
		S780.53,85.38,779.86,85z M783.92,84.32c0.54-0.3,0.96-0.72,1.26-1.25c0.3-0.53,0.46-1.13,0.46-1.78c0-0.66-0.15-1.25-0.46-1.78
		c-0.3-0.53-0.72-0.95-1.26-1.25s-1.14-0.45-1.8-0.45s-1.27,0.15-1.81,0.45s-0.96,0.72-1.27,1.25s-0.46,1.13-0.46,1.78
		c0,0.66,0.15,1.25,0.46,1.78c0.31,0.53,0.73,0.95,1.27,1.25c0.54,0.3,1.14,0.45,1.81,0.45S783.38,84.62,783.92,84.32z"/>
	<path class="st6" d="M791.42,81.54l-1.72,1.74v2.21h-0.89v-8.4h0.89v5.08l4.93-5.08h1.02l-3.64,3.8l3.89,4.6h-1.06L791.42,81.54z"
		/>
	<path class="st6" d="M803.58,84.72v0.77h-5.94v-8.4h5.76v0.77h-4.87v2.99h4.34v0.76h-4.34v3.12H803.58z"/>
	<path class="st6" d="M809.94,85.26c-0.57-0.2-1.01-0.46-1.33-0.79l0.35-0.68c0.3,0.3,0.71,0.55,1.21,0.74s1.02,0.28,1.56,0.28
		c0.75,0,1.32-0.14,1.69-0.41c0.38-0.28,0.56-0.63,0.56-1.07c0-0.34-0.1-0.6-0.31-0.8c-0.2-0.2-0.45-0.35-0.75-0.46
		s-0.71-0.23-1.24-0.35c-0.63-0.16-1.14-0.31-1.51-0.46s-0.7-0.37-0.97-0.68c-0.27-0.3-0.4-0.72-0.4-1.24
		c0-0.42,0.11-0.81,0.34-1.16c0.22-0.35,0.57-0.63,1.03-0.83c0.46-0.21,1.04-0.31,1.73-0.31c0.48,0,0.95,0.07,1.41,0.2
		c0.46,0.13,0.86,0.31,1.19,0.55l-0.3,0.71c-0.35-0.23-0.73-0.41-1.13-0.52c-0.4-0.12-0.79-0.17-1.18-0.17
		c-0.74,0-1.29,0.14-1.66,0.43c-0.37,0.28-0.56,0.65-0.56,1.1c0,0.34,0.1,0.61,0.31,0.81c0.2,0.2,0.46,0.36,0.77,0.47
		s0.72,0.23,1.24,0.35c0.62,0.15,1.11,0.3,1.49,0.45s0.7,0.37,0.97,0.67s0.4,0.71,0.4,1.22c0,0.42-0.11,0.81-0.34,1.16
		c-0.23,0.35-0.58,0.62-1.05,0.83s-1.05,0.31-1.74,0.31C811.11,85.56,810.51,85.46,809.94,85.26z"/>
	<path class="st6" d="M818.51,85c-0.68-0.37-1.2-0.88-1.58-1.53c-0.38-0.65-0.57-1.38-0.57-2.18c0-0.81,0.19-1.54,0.57-2.18
		c0.38-0.65,0.91-1.16,1.58-1.53c0.68-0.37,1.43-0.56,2.26-0.56s1.58,0.18,2.25,0.55s1.19,0.88,1.58,1.53
		c0.38,0.65,0.58,1.38,0.58,2.19c0,0.81-0.19,1.54-0.58,2.19c-0.38,0.65-0.91,1.16-1.58,1.53c-0.67,0.37-1.42,0.55-2.25,0.55
		S819.18,85.38,818.51,85z M822.57,84.32c0.54-0.3,0.96-0.72,1.26-1.25c0.3-0.53,0.46-1.13,0.46-1.78c0-0.66-0.15-1.25-0.46-1.78
		c-0.3-0.53-0.72-0.95-1.26-1.25s-1.14-0.45-1.8-0.45s-1.27,0.15-1.81,0.45s-0.96,0.72-1.27,1.25s-0.46,1.13-0.46,1.78
		c0,0.66,0.15,1.25,0.46,1.78c0.31,0.53,0.73,0.95,1.27,1.25c0.54,0.3,1.14,0.45,1.81,0.45S822.03,84.62,822.57,84.32z"/>
	<path class="st6" d="M827.46,77.09h0.89v7.63h4.7v0.77h-5.59V77.09z"/>
	<path class="st6" d="M835.67,84.63c-0.61-0.62-0.91-1.53-0.91-2.72v-4.81h0.89v4.78c0,0.98,0.22,1.7,0.66,2.18
		c0.44,0.48,1.08,0.72,1.91,0.72c0.84,0,1.48-0.24,1.92-0.72c0.44-0.48,0.66-1.21,0.66-2.18v-4.78h0.86v4.81
		c0,1.19-0.3,2.1-0.91,2.72c-0.6,0.62-1.45,0.94-2.54,0.94S836.28,85.25,835.67,84.63z"/>
	<path class="st6" d="M846.27,77.86h-2.95v-0.77h6.79v0.77h-2.95v7.63h-0.89V77.86z"/>
	<path class="st6" d="M851.82,77.09h0.89v8.4h-0.89V77.09z"/>
	<path class="st6" d="M857.16,85c-0.68-0.37-1.2-0.88-1.58-1.53c-0.38-0.65-0.57-1.38-0.57-2.18c0-0.81,0.19-1.54,0.57-2.18
		c0.38-0.65,0.91-1.16,1.58-1.53c0.68-0.37,1.43-0.56,2.26-0.56s1.58,0.18,2.25,0.55s1.19,0.88,1.58,1.53
		c0.38,0.65,0.58,1.38,0.58,2.19c0,0.81-0.19,1.54-0.58,2.19c-0.38,0.65-0.91,1.16-1.58,1.53c-0.67,0.37-1.42,0.55-2.25,0.55
		S857.83,85.38,857.16,85z M861.22,84.32c0.54-0.3,0.96-0.72,1.26-1.25c0.3-0.53,0.46-1.13,0.46-1.78c0-0.66-0.15-1.25-0.46-1.78
		c-0.3-0.53-0.72-0.95-1.26-1.25s-1.14-0.45-1.8-0.45s-1.27,0.15-1.81,0.45s-0.96,0.72-1.27,1.25s-0.46,1.13-0.46,1.78
		c0,0.66,0.15,1.25,0.46,1.78c0.31,0.53,0.73,0.95,1.27,1.25c0.54,0.3,1.14,0.45,1.81,0.45S860.68,84.62,861.22,84.32z"/>
	<path class="st6" d="M873.14,77.09v8.4h-0.73l-5.4-6.82v6.82h-0.89v-8.4h0.73l5.41,6.82v-6.82H873.14z"/>
	<path class="st6" d="M876.69,85.26c-0.57-0.2-1.01-0.46-1.33-0.79l0.35-0.68c0.3,0.3,0.71,0.55,1.21,0.74s1.02,0.28,1.56,0.28
		c0.75,0,1.32-0.14,1.69-0.41c0.38-0.28,0.56-0.63,0.56-1.07c0-0.34-0.1-0.6-0.31-0.8c-0.2-0.2-0.45-0.35-0.75-0.46
		s-0.71-0.23-1.24-0.35c-0.63-0.16-1.14-0.31-1.51-0.46s-0.7-0.37-0.97-0.68c-0.27-0.3-0.4-0.72-0.4-1.24
		c0-0.42,0.11-0.81,0.34-1.16c0.22-0.35,0.57-0.63,1.03-0.83c0.46-0.21,1.04-0.31,1.73-0.31c0.48,0,0.95,0.07,1.41,0.2
		c0.46,0.13,0.86,0.31,1.19,0.55l-0.3,0.71c-0.35-0.23-0.73-0.41-1.13-0.52c-0.4-0.12-0.79-0.17-1.18-0.17
		c-0.74,0-1.29,0.14-1.66,0.43c-0.37,0.28-0.56,0.65-0.56,1.1c0,0.34,0.1,0.61,0.31,0.81c0.2,0.2,0.46,0.36,0.77,0.47
		s0.72,0.23,1.24,0.35c0.62,0.15,1.11,0.3,1.49,0.45s0.7,0.37,0.97,0.67s0.4,0.71,0.4,1.22c0,0.42-0.11,0.81-0.34,1.16
		c-0.23,0.35-0.58,0.62-1.05,0.83s-1.05,0.31-1.74,0.31C877.86,85.56,877.27,85.46,876.69,85.26z"/>
</g>
</svg>
