<?xml version="1.0" encoding="utf-8"?>
<!-- Generator: Adobe Illustrator 16.0.0, SVG Export Plug-In . SVG Version: 6.00 Build 0)  -->
<!DOCTYPE svg PUBLIC "-//W3C//DTD SVG 1.1//EN" "http://www.w3.org/Graphics/SVG/1.1/DTD/svg11.dtd">
<svg version="1.1" id="Layer_1" focusable="false" xmlns="http://www.w3.org/2000/svg" xmlns:xlink="http://www.w3.org/1999/xlink"
	 x="0px" y="0px" width="1024px" height="1024px" viewBox="0 0 1024 1024" enable-background="new 0 0 1024 1024"
	 xml:space="preserve">
<path fill="#2F3543" d="M512,16C238,16,16,238,16,512s222,496,496,496s496-222,496-496S786,16,512,16z M912,512
	c0,45-7.8,88.4-21.6,128.8H849.8c-8.6,0-16.8-3.399-22.8-9.6L763,566c-9-9.2-9-24.2,0.2-33.4l25-25V490.2c0-6-2.4-11.8-6.601-16
	l-18.8-18.8c-4.2-4.2-10-6.601-16-6.601h-32c-12.399,0-22.6-10.2-22.6-22.6c0-6,2.4-11.8,6.6-16l18.8-18.8c4.2-4.2,10-6.6,16-6.6h64
	c12.4,0,22.601-10.2,22.601-22.6v-18.8c0-12.4-10.2-22.6-22.601-22.6H724.2c-17.601,0-32,14.4-32,32v9c0,13.8-8.8,26-21.8,30.4
	l-63.2,21c-6.601,2.2-11,8.2-11,15.2v4.399c0,8.8-7.2,16-16,16h-32c-8.8,0-16-7.2-16-16s-7.2-16-16-16H510c-6,0-11.6,3.4-14.4,8.8
	L476.8,463c-5.399,10.8-16.399,17.6-28.6,17.6H404c-17.6,0-32-14.399-32-32V398c0-8.4,3.4-16.6,9.4-22.6l40.199-40.2
	c9.2-9.2,14.4-21.8,14.4-35c0-6.8,4.4-13,11-15.2l80-26.6c3.4-1.2,6.4-3,8.8-5.4l53.601-53.6c4.199-4.2,6.6-10,6.6-16
	c0-12.4-10.2-22.6-22.6-22.6H532l-32,32v16c0,8.8-7.2,16-16,16h-32c-8.8,0-16-7.2-16-16v-40c0-5,2.4-9.8,6.4-12.8l57.8-43.4
	c3.8-0.2,7.6-0.6,11.399-0.6C732.6,112,912,291.4,912,512z M276.2,298.2c0-6,2.4-11.8,6.6-16l50.8-50.8c4.2-4.2,10-6.6,16-6.6
	c12.4,0,22.601,10.2,22.601,22.6v32c0,6-2.4,11.8-6.601,16l-18.8,18.8c-4.2,4.2-10,6.6-16,6.6h-32
	C286.4,320.8,276.2,310.6,276.2,298.2z M532.2,911v-14.2c0-17.6-14.4-32-32-32h-40.4c-21.6,0-53.399-10.6-70.8-23.6l-44.4-33.4
	c-23-17.2-36.399-44.2-36.399-72.8v-47.8c0-32,16.8-61.601,44.2-78l85.8-51.4c14.2-8.399,30.399-13,46.8-13h62.4
	c21.8,0,42.8,7.8,59.199,21.8l86.4,74.2h36.6c17,0,33.2,6.8,45.2,18.8L809.4,694.2c6.8,6.8,16.199,10.6,25.8,10.6H862
	C797.2,822.6,674.4,903.8,532.2,911L532.2,911z"/>
</svg>
