<?xml version="1.0" encoding="utf-8"?>
<!-- Generator: Adobe Illustrator 16.0.0, SVG Export Plug-In . SVG Version: 6.00 Build 0)  -->
<!DOCTYPE svg PUBLIC "-//W3C//DTD SVG 1.1//EN" "http://www.w3.org/Graphics/SVG/1.1/DTD/svg11.dtd">
<svg version="1.1" id="Layer_1" focusable="false" xmlns="http://www.w3.org/2000/svg" xmlns:xlink="http://www.w3.org/1999/xlink"
	 x="0px" y="0px" width="1024px" height="1024px" viewBox="0 0 1024 1024" enable-background="new 0 0 1024 1024"
	 xml:space="preserve">
<path fill="#FFFFFF" d="M512.2,282C385,282,282.4,384.6,282.4,511.8c0,127.2,102.6,229.8,229.8,229.8S742,639,742,511.8
	C742,384.6,639.4,282,512.2,282z M512.2,661.2c-82.2,0-149.4-67-149.4-149.4c0-82.399,67-149.4,149.4-149.4
	c82.399,0,149.399,67,149.399,149.4C661.6,594.2,594.4,661.2,512.2,661.2L512.2,661.2z M805,272.6c0,29.8-24,53.6-53.6,53.6
	c-29.801,0-53.601-24-53.601-53.6s24-53.6,53.601-53.6C781,219,805,243,805,272.6z M957.2,327c-3.4-71.8-19.8-135.4-72.4-187.8
	C832.4,86.8,768.8,70.4,697,66.8c-74-4.2-295.8-4.2-369.8,0C255.6,70.2,192,86.6,139.4,139S70.6,255,67,326.8
	c-4.2,74-4.2,295.8,0,369.8C70.4,768.4,86.8,832,139.4,884.4c52.6,52.399,116,68.8,187.8,72.399c74,4.2,295.8,4.2,369.8,0
	C768.8,953.4,832.4,937,884.8,884.4c52.4-52.4,68.8-116,72.4-187.801C961.4,622.6,961.4,401,957.2,327z M861.6,776
	c-15.6,39.2-45.8,69.4-85.199,85.2c-59,23.399-199,18-264.2,18s-205.4,5.2-264.2-18c-39.2-15.601-69.4-45.8-85.2-85.2
	c-23.4-59-18-199-18-264.2s-5.2-205.4,18-264.2c15.6-39.2,45.8-69.4,85.2-85.2c59-23.4,199-18,264.2-18s205.399-5.2,264.2,18
	C815.6,178,845.8,208.2,861.6,247.6c23.4,59,18,199,18,264.2S885,717.2,861.6,776z"/>
</svg>
