<?xml version="1.0" encoding="utf-8"?>
<!-- Generator: Adobe Illustrator 16.0.0, SVG Export Plug-In . SVG Version: 6.00 Build 0)  -->
<!DOCTYPE svg PUBLIC "-//W3C//DTD SVG 1.1//EN" "http://www.w3.org/Graphics/SVG/1.1/DTD/svg11.dtd">
<svg version="1.1" id="Layer_1" focusable="false" xmlns="http://www.w3.org/2000/svg" xmlns:xlink="http://www.w3.org/1999/xlink"
	 x="0px" y="0px" width="1024px" height="1024px" viewBox="0 0 1024 1024" enable-background="new 0 0 1024 1024"
	 xml:space="preserve">
<path fill="#2F3543" d="M986.8,49.2l-208-48C756.2-4,733,7.8,723.8,29l-96,224c-8.399,19.6-2.8,42.6,13.8,56l121.2,99.2
	C690.8,561.6,565,689.2,408.4,762.6L309.2,641.4c-13.6-16.601-36.4-22.2-56-13.801l-224,96C7.8,733-4,756.2,1.2,778.8l48,208
	c5,21.601,24.2,37.2,46.8,37.2c512.2,0,928-415,928-928C1024,73.6,1008.6,54.2,986.8,49.2z"/>
</svg>
