<?xml version="1.0" encoding="utf-8"?>
<!-- Generator: Adobe Illustrator 16.0.0, SVG Export Plug-In . SVG Version: 6.00 Build 0)  -->
<!DOCTYPE svg PUBLIC "-//W3C//DTD SVG 1.1//EN" "http://www.w3.org/Graphics/SVG/1.1/DTD/svg11.dtd">
<svg version="1.1" id="Layer_1" focusable="false" xmlns="http://www.w3.org/2000/svg" xmlns:xlink="http://www.w3.org/1999/xlink"
	 x="0px" y="0px" width="1024px" height="1024px" viewBox="0 0 1024 1024" enable-background="new 0 0 1024 1024"
	 xml:space="preserve">
<path fill="#FFFFFF" d="M918.74,303.432c0.649,9.096,0.649,18.194,0.649,27.29c0,277.44-211.166,597.116-597.115,597.116
	C203.37,927.838,92.914,893.4,0,833.626c16.894,1.948,33.136,2.598,50.68,2.598c98.11,0,188.426-33.136,260.548-89.663
	c-92.265-1.95-169.584-62.377-196.225-145.545c12.996,1.948,25.99,3.248,39.636,3.248c18.842,0,37.686-2.6,55.228-7.146
	c-96.162-19.494-168.286-103.96-168.286-205.97v-2.598c27.938,15.595,60.428,25.34,94.862,26.639
	c-56.528-37.687-93.562-102.01-93.562-174.782c0-38.984,10.394-74.72,28.588-105.908c103.31,127.35,258.6,210.516,432.73,219.614
	c-3.248-15.594-5.198-31.836-5.198-48.08c0-115.656,93.564-209.868,209.868-209.868c60.426,0,115.004,25.34,153.34,66.274
	c47.43-9.096,92.912-26.64,133.198-50.68c-15.596,48.732-48.732,89.666-92.264,115.654c42.233-4.546,83.168-16.244,120.852-32.486
	C995.412,236.508,959.674,273.542,918.74,303.432L918.74,303.432z"/>
</svg>
