<?xml version="1.0" encoding="utf-8"?>
<!-- Generator: Adobe Illustrator 16.0.0, SVG Export Plug-In . SVG Version: 6.00 Build 0)  -->
<!DOCTYPE svg PUBLIC "-//W3C//DTD SVG 1.1//EN" "http://www.w3.org/Graphics/SVG/1.1/DTD/svg11.dtd">
<svg version="1.1" id="Layer_1" focusable="false" xmlns="http://www.w3.org/2000/svg" xmlns:xlink="http://www.w3.org/1999/xlink"
	 x="0px" y="0px" width="1024px" height="1024px" viewBox="0 0 1024 1024" enable-background="new 0 0 1024 1024"
	 xml:space="preserve">
<path fill="#FFFFFF" d="M977.164,277.481c-11.166-42.044-44.065-75.157-85.838-86.395C815.61,170.667,512,170.667,512,170.667
	s-303.609,0-379.326,20.42c-41.772,11.239-74.672,44.35-85.838,86.395c-20.288,76.208-20.288,235.208-20.288,235.208
	s0,159.001,20.288,235.209c11.167,42.045,44.066,73.778,85.838,85.016C208.391,853.333,512,853.333,512,853.333
	s303.609,0,379.326-20.419c41.772-11.237,74.672-42.971,85.838-85.016c20.288-76.208,20.288-235.209,20.288-235.209
	S997.452,353.689,977.164,277.481L977.164,277.481z M412.702,657.051V368.329l253.759,144.364L412.702,657.051z"/>
</svg>
